<svg xmlns="http://www.w3.org/2000/svg" xmlns:xlink="http://www.w3.org/1999/xlink" width="360" height="487" viewBox="0 0 360 487">
    <defs>
        <path id="a" d="M0 0h362v487H0z"/>
        <linearGradient id="c" x1="50%" x2="50%" y1="0%" y2="98.725%">
            <stop offset="0%" stop-color="#A78BFF"/>
            <stop offset="100%" stop-color="#4159FA"/>
        </linearGradient>
        <linearGradient id="d" x1="117.268%" x2="3.206%" y1="50%" y2="50%">
            <stop offset="0%" stop-color="#FDB996"/>
            <stop offset="100%" stop-color="#FF6080"/>
        </linearGradient>
        <linearGradient id="e" x1="50%" x2="50%" y1="0%" y2="100%">
            <stop offset="0%" stop-color="#A78BFF"/>
            <stop offset="100%" stop-color="#5E73FF"/>
        </linearGradient>
    </defs>
    <g fill="none" fill-rule="evenodd" transform="translate(-1)">
        <mask id="b" fill="#fff">
            <use xlink:href="#a"/>
        </mask>
        <use fill="#FFF" xlink:href="#a"/>
        <g mask="url(#b)">
            <path fill="url(#c)" d="M205 155C321 155 432.164 0 548 0c20.395 0 36.061 2.333 47 7v148H205z" opacity=".097" transform="translate(-59 355)"/>
            <path fill="url(#d)" d="M60 155c108.79 0 213.043-61 321.678-61 6.878 0 15.318.918 25.322 2.755V155H60z" opacity=".128" transform="matrix(-1 0 0 1 408 355)"/>
            <path fill="url(#e)" d="M0 135c108.79 0 253.043-121 361.678-121 6.878 0 15.318.918 25.322 2.755L397 135H0z" opacity=".06" transform="matrix(-1 0 0 1 338 355)"/>
        </g>
    </g>
</svg>
