<svg xmlns="http://www.w3.org/2000/svg" width="54" height="47" viewBox="0 0 54 47">
    <g fill="none" fill-rule="nonzero">
        <path fill="#000" d="M28 19v-9h1V5.125C29 4.504 29.448 4 30 4s1 .504 1 1.125V10h1v9h8.152C47.788 19 54 25.28 54 33s-6.212 14-13.848 14H18.848C11.212 47 5 40.72 5 33s6.212-14 13.848-14H28z" opacity=".486"/>
        <g>
            <path fill="#E6E6E6" d="M35.152 15H13.848C6.212 15 0 21.28 0 29s6.212 14 13.848 14h21.304C42.788 43 49 36.72 49 29s-6.212-14-13.848-14z"/>
            <path fill="#444" d="M24 9c-.552 0-1-.504-1-1.125v-6.75C23 .504 23.448 0 24 0s1 .504 1 1.125v6.75C25 8.496 24.552 9 24 9z"/>
            <path fill="#B3B3B3" d="M22 6h4v9h-4z"/>
            <circle cx="35.5" cy="28.5" r="8.5" fill="#FFF"/>
            <circle cx="12.5" cy="28.5" r="8.5" fill="#FFF"/>
            <circle cx="35" cy="25" r="2" fill="#458BC4"/>
            <circle cx="35" cy="33" r="2" fill="#EFD358"/>
            <circle cx="39" cy="29" r="2" fill="#E86C60"/>
            <circle cx="31" cy="29" r="2" fill="#4DA34D"/>
            <path fill="#666" d="M16.9 27.4h-3.3v-3.3a1.1 1.1 0 0 0-2.2 0v3.3H8.1a1.1 1.1 0 0 0 0 2.2h3.3v3.3a1.1 1.1 0 0 0 2.2 0v-3.3h3.3a1.1 1.1 0 0 0 0-2.2z"/>
        </g>
    </g>
</svg>
