<?xml version="1.0" encoding="UTF-8"?>
<svg width="864px" height="585px" viewBox="0 0 864 585" version="1.1" xmlns="http://www.w3.org/2000/svg" xmlns:xlink="http://www.w3.org/1999/xlink">
    <!-- Generator: Sketch 53.2 (72643) - https://sketchapp.com -->
    <title>Group 27</title>
    <desc>Created with Sketch.</desc>
    <g id="Color-exploration" stroke="none" stroke-width="1" fill="none" fill-rule="evenodd">
        <g id="Group-27" fill="#4B2D86">
            <g id="Group-14">
                <path d="M387.4335,35.2735 C387.3825,35.2847273 387.4515,34.5763301 387.4515,35.2735 C390.0905,32.7665 392.9205,30.4685 395.9155,28.4005 C412.3545,16.0925 425.1355,9.2025 441.7265,4.6985 C459.1685,0.2315 477.2725,-1.0655 495.1725,0.8735 C514.0275,3.3745 532.1955,9.6015 548.6195,19.1905 C557.7945,24.4555 591.1795,49.0705 618.8595,71.1135 C635.3315,84.2505 649.3325,96.1015 660.0995,105.4805 C666.0765,111.5915 671.0535,116.6535 674.6085,120.7165 C677.0425,123.4845 679.0975,126.5645 680.7195,129.8755 C684.2155,134.7755 686.0865,140.6495 686.0695,146.6695 C686.0905,152.5795 684.5045,158.3845 681.4815,163.4635 C679.8935,166.4035 678.1055,169.2315 676.1315,171.9285 C672.8815,176.1095 668.3955,181.3075 663.1475,187.1645 C653.3955,197.4575 640.7155,210.0195 625.7335,224.5785 C623.2615,226.5765 621.0945,228.6255 618.8595,230.6905 C605.9255,242.8625 592.0605,255.5425 578.3985,268.1045 C573.3195,272.3535 568.8675,276.3655 564.6515,280.3275 C563.4155,281.2245 562.1465,282.3255 560.8255,283.3745 C560.6115,283.6655 560.3545,283.9225 560.0635,284.1365 C550.5075,292.3985 538.3295,297.0005 525.6975,297.1215 L447.8215,297.1215 C422.7655,297.4095 406.9705,278.1945 409.6455,256.6605 C409.6455,256.434377 409.6455,256.434377 409.5605,256.6265 C406.3645,260.3045 402.7835,263.6305 398.8775,266.5465 C385.4165,277.8795 369.8475,286.4405 353.0675,291.7375 C336.3245,297.1325 318.6355,298.9545 301.1445,297.0875 C282.5675,295.4025 264.5845,289.6695 248.4595,280.2935 C232.0055,270.8845 217.6995,258.1405 206.4575,242.8795 C184.4075,213.8965 174.5425,177.4505 178.9645,141.3025 C180.6585,130.1965 188.6995,111.9465 204.9345,79.4595 C205.8145,77.4445 206.6275,75.7015 207.2195,74.1095 C213.2465,62.5635 219.3245,50.7125 225.5385,38.9815 C227.5185,34.9515 229.4825,31.1935 230.8875,27.5195 C231.7845,26.6125 232.5525,25.5865 233.1725,24.4725 C233.4605,23.6595 233.4775,23.6265 233.1725,23.7105 C240.9875,9.8965 255.4825,1.1995 271.3485,0.8055 L348.4625,0.8055 C371.0455,0.9915 386.2835,16.3125 387.3825,35.2565 L387.4335,35.2735 Z M257.6195,36.7975 C257.8055,36.5775 208.3715,129.5365 206.4575,144.4685 C204.7365,159.0395 205.7705,173.8045 209.5055,187.9945 C213.5115,202.0035 219.9775,215.1885 228.6015,226.9315 C237.7065,238.9985 249.1325,249.1235 262.2065,256.7105 C274.8105,263.9665 288.8425,268.3915 303.3285,269.6785 C317.1915,271.2755 331.2355,269.9725 344.5685,265.8525 C358.1945,261.3205 370.8745,254.3325 381.9825,245.2325 C393.4635,235.6415 403.0475,223.9845 410.2385,210.8655 L452.3075,150.5635 C455.4585,145.1495 460.7105,141.2825 466.8165,139.8805 C472.7455,138.3695 479.0275,139.1875 484.3715,142.1665 C489.3955,145.2255 492.9715,150.1815 494.2925,155.9125 C496.2145,161.8105 495.3745,168.2595 492.0065,173.4685 L439.3235,254.4085 C433.9215,263.0765 437.6295,269.9665 447.7875,269.6455 L525.6625,269.6455 C531.5575,269.5445 537.2305,267.3825 541.6955,263.5335 C541.4925,263.8555 658.5085,161.0255 658.5085,146.7205 C658.5085,132.9905 548.2305,50.7305 534.8045,42.8755 C521.6535,35.2505 507.1175,30.3185 492.0405,28.3665 C477.4695,26.6445 462.7045,27.6785 448.5155,31.4135 C434.6335,35.0535 424.2725,41.3685 411.8635,50.5105 C399.9885,59.6035 390.1115,71.0425 382.8455,84.1155 L332.4475,165.8165 C329.6785,170.7395 326.0625,175.1355 321.7645,178.8015 C317.7185,181.2905 312.9605,181.1205 307.2555,178.0395 C302.1465,174.9045 298.3495,170.0195 296.5735,164.2935 C295.2995,158.3525 296.1065,152.1535 298.8595,146.7375 L357.6555,44.4155 C363.0215,35.5785 358.8905,28.4675 348.4955,28.3835 L271.3145,28.3835 C265.6425,28.7625 260.5215,31.9095 257.6195,36.7975 L257.6195,36.7975 Z" id="Fill-1"></path>
                <g id="Group-13" transform="translate(0.000000, 392.428000)">
                    <path d="M429.7274,120.259 C429.7274,130.131 427.9254,139.444 424.3154,148.197 C420.7064,156.951 415.7744,164.562 409.5194,171.025 C403.2604,177.489 395.9314,182.599 387.5324,186.36 C379.1304,190.121 370.1404,192 360.5564,192 C351.9854,192 343.7564,190.444 335.8634,187.329 C327.9704,184.216 320.8104,179.661 314.3854,173.667 C308.0714,179.661 300.9954,184.216 293.1594,187.329 C285.3234,190.444 277.0654,192 268.3834,192 C258.7994,192 249.8354,190.121 241.4934,186.36 C233.1484,182.599 225.8494,177.489 219.5914,171.025 C213.3324,164.562 208.4014,156.951 204.7924,148.197 C201.1844,139.444 199.3794,130.131 199.3794,120.259 L199.3794,13.622 C199.3794,6.124 205.3454,0.044 212.6964,0.044 L232.2364,0.044 C239.5884,0.044 245.5514,6.119 245.5514,13.622 L245.5514,120.259 C245.5514,123.55 246.1424,126.635 247.3274,129.513 C248.5124,132.393 250.1444,134.92 252.2314,137.093 C254.3184,139.265 256.7414,140.972 259.5044,142.203 C262.2674,143.438 265.2254,144.056 268.3834,144.056 C271.5404,144.056 274.5294,143.438 277.3454,142.203 C280.1654,140.972 282.6454,139.265 284.7894,137.093 C286.9294,134.92 288.5924,132.393 289.7774,129.513 C290.9614,126.635 291.5524,123.55 291.5524,120.259 L291.5524,13.622 C291.5524,6.124 297.5184,0.044 304.8664,0.044 L324.2424,0.044 C331.5944,0.044 337.5544,6.119 337.5544,13.622 L337.5544,120.259 C337.5544,123.55 338.1734,126.635 339.4144,129.513 C340.6574,132.393 342.3194,134.92 344.4044,137.093 C346.4914,139.265 348.9144,140.972 351.6774,142.203 C354.4404,143.438 357.3984,144.056 360.5564,144.056 C363.7124,144.056 366.6994,143.438 369.5214,142.203 C372.3374,140.972 374.7894,139.265 376.8764,137.093 C378.9604,134.92 380.6234,132.393 381.8654,129.513 C383.1064,126.635 383.7254,123.55 383.7254,120.259 L383.7254,13.622 C383.7254,6.124 389.6934,0.044 397.0394,0.044 L416.4144,0.044 C423.7674,0.044 429.7274,6.119 429.7274,13.622 L429.7274,120.259 Z" id="Fill-6"></path>
                    <path d="M816.0106,96.0207 C816.0106,88.7737 814.7416,82.2117 812.2056,76.3347 C809.6656,70.4587 806.2126,65.4067 801.8476,61.1797 C797.4766,56.9507 792.3716,53.7107 786.5286,51.4607 C780.6846,49.2077 774.4576,48.0827 767.8436,48.0827 C761.2346,48.0827 755.0086,49.2077 749.1646,51.4607 C743.3186,53.7107 738.2416,56.9507 733.9336,61.1797 C729.6246,65.4067 726.2316,70.4587 723.7516,76.3347 C721.2736,82.2117 720.0326,88.7737 720.0326,96.0207 C720.0326,102.8307 721.2736,109.1467 723.7516,114.9657 C726.2316,120.7877 729.6246,125.8387 733.9336,130.1217 C738.2416,134.4067 743.3186,137.7847 749.1646,140.2537 C755.0086,142.7257 761.2346,143.9607 767.8436,143.9607 C774.4576,143.9607 780.6846,142.8077 786.5286,140.5007 C792.3716,138.1957 797.4766,134.9547 801.8476,130.7827 C806.2126,126.6087 809.6656,121.5567 812.2056,115.6267 C814.7416,109.6957 816.0106,103.1597 816.0106,96.0207 M863.9996,96.1917 C863.9996,109.7567 861.4856,122.3897 856.4546,134.0887 C851.4256,145.7917 844.5826,155.9097 835.9266,164.4457 C827.2736,172.9797 817.1236,179.7067 805.4846,184.6227 C793.8466,189.5407 781.3596,192.0007 768.0246,192.0007 C754.8046,192.0007 742.3756,189.5407 730.7366,184.6227 C719.0966,179.7067 708.9216,172.9797 700.2066,164.4457 C691.4916,155.9097 684.6176,145.7917 679.5906,134.0887 C674.5616,122.3897 672.0436,109.7567 672.0436,96.1917 C672.0436,82.3977 674.5616,69.6247 679.5906,57.8687 C684.6176,46.1117 691.4916,35.9637 700.2066,27.4297 C708.9216,18.8937 719.0966,12.1967 730.7366,7.3347 C742.3756,2.4747 754.8046,0.0437 768.0246,0.0437 C781.3596,0.0437 793.8466,2.3337 805.4846,6.9097 C817.1236,11.4887 827.2736,17.9907 835.9266,26.4137 C844.5826,34.8337 851.4256,44.9517 856.4546,56.7637 C861.4856,68.5807 863.9996,81.7197 863.9996,96.1917" id="Fill-8"></path>
                    <path d="M111.829,192.0002 L13.553,192.0002 C6.066,192.0002 0,185.9252 0,178.4262 L0,156.7302 C0,149.2342 6.071,143.1572 13.553,143.1572 L111.829,143.1572 C115.175,143.1572 118.041,141.9622 120.433,139.5662 C122.82,137.1742 124.016,134.2992 124.016,130.9492 C124.016,127.4772 122.82,125.2012 120.433,124.1242 C118.041,123.0472 115.175,122.5072 111.829,122.5072 L60.932,122.5072 C52.448,122.5072 44.505,120.8932 37.097,117.6582 C29.689,114.4272 23.238,110.0292 17.743,104.4622 C12.247,98.8952 7.915,92.4012 4.748,84.9792 C1.583,77.5572 0,69.5972 0,61.0982 C0,52.5982 1.583,44.6362 4.748,37.2132 C7.915,29.7912 12.247,23.3282 17.743,17.8212 C23.238,12.3142 29.689,7.9752 37.097,4.8042 C44.505,1.6292 52.448,0.0442 60.932,0.0442 L146.49,0.0442 C153.975,0.0442 160.037,6.1192 160.037,13.6172 L160.037,35.3132 C160.037,42.8092 153.969,48.8872 146.49,48.8872 L60.932,48.8872 C57.586,48.8872 54.719,50.0842 52.328,52.4782 C49.94,54.8732 48.745,57.7452 48.745,61.0982 C48.745,64.5672 49.94,67.5312 52.328,69.9842 C54.719,72.4372 57.586,73.6672 60.932,73.6672 L111.829,73.6672 C120.191,73.6672 128.078,75.0712 135.486,77.8872 C142.893,80.6992 149.345,84.6192 154.84,89.6462 C160.336,94.6762 164.696,100.7202 167.924,107.7832 C171.149,114.8472 172.761,122.5672 172.761,130.9492 C172.761,139.4462 171.149,147.3792 167.924,154.7412 C164.696,162.1042 160.336,168.5662 154.84,174.1332 C149.345,179.7002 142.893,184.0692 135.486,187.2432 C128.078,190.4142 120.191,192.0002 111.829,192.0002" id="Fill-3"></path>
                    <path d="M598.8749,96.0207 C598.8749,88.7737 597.6049,82.2117 595.0699,76.3347 C592.5289,70.4587 589.0759,65.4067 584.7109,61.1797 C580.3409,56.9507 575.2349,53.7107 569.3919,51.4607 C563.5479,49.2077 557.3209,48.0827 550.7069,48.0827 C544.0989,48.0827 537.8719,49.2077 532.0279,51.4607 C526.1819,53.7107 521.1049,56.9507 516.7969,61.1797 C512.4879,65.4067 509.0949,70.4587 506.6159,76.3347 C504.1379,82.2117 502.8959,88.7737 502.8959,96.0207 C502.8959,102.8307 504.1379,109.1467 506.6159,114.9657 C509.0949,120.7877 512.4879,125.8387 516.7969,130.1217 C521.1049,134.4067 526.1819,137.7847 532.0279,140.2537 C537.8719,142.7257 544.0989,143.9607 550.7069,143.9607 C557.3209,143.9607 563.5479,142.8077 569.3919,140.5007 C575.2349,138.1957 580.3409,134.9547 584.7109,130.7827 C589.0759,126.6087 592.5289,121.5567 595.0699,115.6267 C597.6049,109.6957 598.8749,103.1597 598.8749,96.0207 M646.8639,96.1917 C646.8639,109.7567 644.3489,122.3897 639.3189,134.0887 C634.2889,145.7917 627.4459,155.9097 618.7899,164.4457 C610.1369,172.9797 599.9869,179.7067 588.3479,184.6227 C576.7109,189.5407 564.2239,192.0007 550.8889,192.0007 C537.6689,192.0007 525.2399,189.5407 513.6009,184.6227 C501.9609,179.7067 491.7859,172.9797 483.0709,164.4457 C474.3549,155.9097 467.4819,145.7917 462.4549,134.0887 C457.4249,122.3897 454.9079,109.7567 454.9079,96.1917 C454.9079,82.3977 457.4249,69.6247 462.4549,57.8687 C467.4819,46.1117 474.3549,35.9637 483.0709,27.4297 C491.7859,18.8937 501.9609,12.1967 513.6009,7.3347 C525.2399,2.4747 537.6689,0.0437 550.8889,0.0437 C564.2239,0.0437 576.7109,2.3337 588.3479,6.9097 C599.9869,11.4887 610.1369,17.9907 618.7899,26.4137 C627.4459,34.8337 634.2889,44.9517 639.3189,56.7637 C644.3489,68.5807 646.8639,81.7197 646.8639,96.1917" id="Fill-11"></path>
                </g>
            </g>
        </g>
    </g>
</svg>