<svg xmlns="http://www.w3.org/2000/svg" xmlns:xlink="http://www.w3.org/1999/xlink" width="132" height="132" viewBox="0 0 132 132">
    <defs>
        <linearGradient id="b" x1="117.268%" x2="3.206%" y1="50%" y2="50%">
            <stop offset="0%" stop-color="#FDB996"/>
            <stop offset="100%" stop-color="#FF6080"/>
        </linearGradient>
        <circle id="a" cx="66" cy="66" r="66"/>
    </defs>
    <g fill="none" fill-rule="evenodd">
        <mask id="c" fill="#fff">
            <use xlink:href="#a"/>
        </mask>
        <use fill="url(#b)" xlink:href="#a"/>
        <g fill-rule="nonzero" mask="url(#c)">
            <path fill="#745EFF" d="M132 66a66.14 66.14 0 0 1-1.654 14.744c-5.224 22.9-22.36 41.264-44.54 48.233A65.975 65.975 0 0 1 66 132c-10.98 0-21.333-2.68-30.44-7.424a66.35 66.35 0 0 1-17.394-13.103C6.906 99.638-.001 83.623-.001 66c0-18.14 7.316-34.573 19.167-46.502 0-.002 0-.005.005-.005C30.091 8.496 44.85 1.33 61.272.167h.008A66.71 66.71 0 0 1 66 0c36.45 0 66 29.55 66 66z"/>
            <path fill="#5947C8" d="M130.346 80.744c-5.224 22.9-22.36 41.264-44.54 48.233H60.11a4.844 4.844 0 0 1-4.85-4.85 4.85 4.85 0 0 1 4.85-4.848h14.738a4.833 4.833 0 0 0 3.43-1.42 4.85 4.85 0 0 0-3.43-8.278h-4.113a4.844 4.844 0 0 1-4.85-4.85 4.85 4.85 0 0 1 4.85-4.848h13.617a4.833 4.833 0 0 0 3.43-1.42 4.85 4.85 0 0 0-3.43-8.278H54.454a4.844 4.844 0 0 1-4.85-4.85 4.847 4.847 0 0 1 4.85-4.846H128.8a4.84 4.84 0 0 1 1.546.255z"/>
            <path fill="#50E3C2" d="M112.925 101.222c-7.344 7.344-16.14 12.222-25.218 14.56-10.212 2.633-20.78 2.059-30.042-1.818-4.919-2.058-10.595-.9-14.361 2.867l-7.745 7.745a66.369 66.369 0 0 1-12.939-8.833l4.397-4.4 5.399-5.398c3.768-3.766 4.927-9.442 2.871-14.359-3.879-9.264-4.453-19.832-1.818-30.042 2.338-9.078 7.217-17.874 14.56-25.217 12.872-12.871 30.188-18.16 45.672-15.517.499.086.997.178 1.49.28 8.017 1.644 15.48 5.45 21.5 11.468 17.92 17.922 16.236 48.662-3.766 68.664z"/>
            <path fill="#EDBB4C" d="M87.707 115.783c-10.212 2.632-20.78 2.058-30.042-1.819-4.919-2.058-10.595-.9-14.36 2.867l-7.746 7.745a66.35 66.35 0 0 1-12.939-8.833l4.397-4.4 5.399-5.398c3.768-3.766 4.927-9.442 2.871-14.359-2.626-6.268-3.736-13.135-3.362-20.085a50.542 50.542 0 0 1 1.544-9.957l19.137 19.138 15.997 15.996 6.295 6.295 12.81 12.81z"/>
            <path fill="#279FC9" d="M101.564 75.472c-4.21 9.493-10.664 17.206-18.296 22.652a50.577 50.577 0 0 1-8.37 4.85l-41.43-41.43c2.34-9.078 7.218-17.874 14.561-25.217C61.315 23.04 79.335 17.836 95.191 21.09c11.818 13.79 14.956 35.045 6.373 54.382z" opacity=".245"/>
            <path fill="#FF6692" d="M95.638 69.006C91.428 78.5 84.973 86.212 77.341 91.66c-8.582 6.126-18.652 9.388-28.687 9.103-5.33-.154-10.21 2.966-12.37 7.839l-5.79 13.044a66.32 66.32 0 0 1-12.33-10.173l4.047-9.118c2.163-4.871 1.204-10.582-2.484-14.429C12.78 80.674 8.443 71.02 7.23 60.542c-1.08-9.31.31-19.272 4.523-28.765a56.741 56.741 0 0 1 7.42-12.284C29.818 6.075 45.738-1.215 61.277.167h.002A41.446 41.446 0 0 1 74.47 3.58c8.259 3.667 14.78 9.747 19.23 17.23 8.029 13.502 9.322 31.559 1.938 48.196z"/>
            <path fill="#EF4152" d="M73.925 3.343C54.055-5.024 28.94 8.736 17.57 34.36c-4.213 9.494-5.956 19.297-5.476 28.34.533 10.175 3.868 19.385 9.641 26.114 3.058 3.57 3.613 9.103 1.452 13.974l-4.221 9.509c-.27-.272-.536-.547-.8-.824l4.046-9.12c2.163-4.87 1.204-10.58-2.484-14.428C12.78 80.674 8.443 71.02 7.23 60.542c-1.08-9.31.31-19.272 4.523-28.765a56.685 56.685 0 0 1 7.42-12.284C29.815 6.077 45.736-1.212 61.272.167h.007a41.541 41.541 0 0 1 12.645 3.176z" opacity=".618"/>
            <path fill="#FFD15C" d="M77.341 91.66a50.763 50.763 0 0 1-8.739 5.018c-6.352 2.845-13.157 4.278-19.948 4.084-5.331-.154-10.21 2.966-12.37 7.84l-5.79 13.043a66.369 66.369 0 0 1-12.33-10.173l4.047-9.118c2.163-4.871 1.204-10.582-2.484-14.429C12.78 80.674 8.443 71.02 7.23 60.542l24.695 10.959 20.681 9.18L77.341 91.66z"/>
            <path fill="#EF4152" d="M57.577 37.713a13.188 13.188 0 0 0-.844-.028c-6.637 0-12.017 5.38-12.017 12.017s5.38 12.018 12.017 12.018 12.018-5.38 12.018-12.018v-.046c-.025-6.335-4.946-11.512-11.174-11.943z" opacity=".618"/>
            <path fill="#E8DBC4" d="M75.722 44.1v.047c0 6.637-5.38 12.018-12.017 12.018s-12.018-5.38-12.018-12.018c0-6.637 5.38-12.017 12.018-12.017.284 0 .566.01.844.028 6.227.431 11.148 5.608 11.173 11.943z"/>
            <path fill="#F9EED7" d="M75.722 44.1c-1.015 4.352-4.914 7.592-9.57 7.592-5.431 0-9.835-4.404-9.835-9.834 0-4.886 3.564-8.938 8.232-9.7 6.227.431 11.148 5.608 11.173 11.943z"/>
            <circle cx="67.045" cy="38.905" r="3.294" fill="#FCF8F2"/>
        </g>
    </g>
</svg>
