<svg xmlns="http://www.w3.org/2000/svg" xmlns:xlink="http://www.w3.org/1999/xlink" width="360" height="127" viewBox="0 0 360 127">
    <defs>
        <path id="b" d="M7.692 62h325.616c2.675 0 3.645.278 4.623.801a5.452 5.452 0 0 1 2.268 2.268c.523.978.801 1.948.801 4.623v33.616c0 2.675-.278 3.645-.801 4.623a5.452 5.452 0 0 1-2.268 2.268c-.978.523-1.948.801-4.623.801H7.692c-2.675 0-3.645-.278-4.623-.801a5.452 5.452 0 0 1-2.268-2.268c-.523-.978-.801-1.948-.801-4.623V69.692c0-2.675.278-3.645.801-4.623a5.452 5.452 0 0 1 2.268-2.268C4.047 62.278 5.017 62 7.692 62z"/>
        <filter id="a" width="111.7%" height="181.6%" x="-5.9%" y="-32.7%" filterUnits="objectBoundingBox">
            <feOffset dy="4" in="SourceAlpha" result="shadowOffsetOuter1"/>
            <feGaussianBlur in="shadowOffsetOuter1" result="shadowBlurOuter1" stdDeviation="6"/>
            <feColorMatrix in="shadowBlurOuter1" values="0 0 0 0 1 0 0 0 0 0.401870265 0 0 0 0 0.571793485 0 0 0 0.404283217 0"/>
        </filter>
        <linearGradient id="c" x1="60.237%" x2="60.237%" y1="-7.031%" y2="107.031%">
            <stop offset="0%" stop-color="#FDB996"/>
            <stop offset="100%" stop-color="#FF6080"/>
        </linearGradient>
        <linearGradient id="d" x1="60.237%" x2="60.237%" y1="-7.031%" y2="107.031%">
            <stop offset="0%" stop-color="#FDB996"/>
            <stop offset="100%" stop-color="#FF6080"/>
        </linearGradient>
    </defs>
    <g fill="none" fill-rule="evenodd">
        <g transform="translate(10)">
            <use fill="#000" filter="url(#a)" xlink:href="#b"/>
            <use fill="#FFF" xlink:href="#b"/>
        </g>
        <g fill-rule="nonzero" transform="translate(33)">
            <path fill="#690589" d="M39 46c-.552 0-1-.363-1-.81V22.81c0-.447.448-.81 1-.81s1 .363 1 .81v22.38c0 .447-.448.81-1 .81z"/>
            <circle cx="38.879" cy="72.879" r="27.492" fill="url(#c)" transform="rotate(-45 38.879 72.879)"/>
            <path fill="#690589" d="M46.8 26a.798.798 0 0 1-.566-1.363c4.222-4.211 4.222-11.063 0-15.275a.797.797 0 0 1 0-1.128.801.801 0 0 1 1.132 0c4.845 4.833 4.845 12.698 0 17.533A.8.8 0 0 1 46.8 26zM31.2 26a.797.797 0 0 1-.566-.234c-4.845-4.833-4.845-12.698 0-17.532a.801.801 0 0 1 1.132 0 .797.797 0 0 1 0 1.128c-4.222 4.212-4.222 11.064 0 15.275A.797.797 0 0 1 31.2 26z"/>
            <path fill="#690589" d="M50.835 30a.855.855 0 0 1-.59-.232.763.763 0 0 1 0-1.12C53.524 25.537 55.33 21.4 55.33 17c0-4.4-1.807-8.537-5.086-11.648a.763.763 0 0 1 0-1.12.867.867 0 0 1 1.18 0C55.02 7.642 57 12.177 57 17s-1.98 9.358-5.575 12.768a.856.856 0 0 1-.59.232zM27.165 30a.855.855 0 0 1-.59-.232C22.98 26.358 21 21.823 21 17s1.98-9.358 5.575-12.768a.867.867 0 0 1 1.18 0c.327.31.327.81 0 1.12C24.475 8.463 22.67 12.6 22.67 17c0 4.4 1.807 8.537 5.086 11.648.327.31.327.81 0 1.12a.856.856 0 0 1-.59.232z"/>
            <path fill="#690589" d="M55.762 35a.736.736 0 0 1-.539-.238.85.85 0 0 1 0-1.148c8.338-8.885 8.338-23.343 0-32.228a.85.85 0 0 1 0-1.148.73.73 0 0 1 1.078 0c8.932 9.518 8.932 25.006 0 34.524a.737.737 0 0 1-.539.238zM22.238 35a.735.735 0 0 1-.539-.238c-8.932-9.518-8.932-25.006 0-34.524a.73.73 0 0 1 1.078 0 .85.85 0 0 1 0 1.148c-8.338 8.885-8.338 23.343 0 32.228a.85.85 0 0 1 0 1.148.735.735 0 0 1-.539.238z"/>
            <path fill="#E12579" d="M59.397 53.35a26.908 26.908 0 0 0-1.403-1.297c9.247 10.654 8.695 26.922-1.584 37.2-10.278 10.28-26.546 10.83-37.2 1.585.415.477.842.948 1.296 1.402 10.58 10.58 27.863 10.451 38.603-.288 10.739-10.74 10.868-28.023.288-38.603z" opacity=".499"/>
            <path fill="#FF61B5" d="M59.205 53.157c.454.454.881.925 1.296 1.403-10.654-9.247-26.922-8.695-37.2 1.583-10.28 10.28-10.831 26.547-1.585 37.2a27.149 27.149 0 0 1-1.402-1.295c-10.58-10.58-10.451-27.863.288-38.603 10.74-10.74 28.023-10.868 38.603-.288z" opacity=".497"/>
            <path fill="#690589" d="M39 101c-15.44 0-28-12.785-28-28.5S23.56 44 39 44s28 12.785 28 28.5S54.44 101 39 101zm.5-55C24.888 46 13 58.112 13 73s11.888 27 26.5 27S66 87.888 66 73 54.112 46 39.5 46z"/>
            <path fill="#690589" d="M19.853 59a.84.84 0 0 1-.54-.197.883.883 0 0 1-.12-1.225 27.416 27.416 0 0 1 4.432-4.397.842.842 0 0 1 1.197.158.882.882 0 0 1-.154 1.221 25.707 25.707 0 0 0-4.154 4.12.842.842 0 0 1-.66.32z"/>
            <ellipse cx="39.1" cy="17.104" fill="url(#d)" rx="5.816" ry="5.8" transform="rotate(-54.479 39.1 17.104)"/>
            <path fill="#E12579" d="M43.075 13.825a5.692 5.692 0 0 0-.91-.74c1.49 2.276 1.194 5.405-.858 7.457-2.052 2.053-5.181 2.348-7.457.858.21.322.457.628.74.91 2.277 2.278 6.024 2.226 8.367-.117 2.343-2.344 2.396-6.09.118-8.368z" opacity=".499"/>
            <path fill="#FF61B5" d="M43.375 13.125c.282.282.528.588.74.91-2.277-1.49-5.406-1.195-7.458.857-2.052 2.053-2.347 5.182-.858 7.458a5.692 5.692 0 0 1-.91-.74c-2.278-2.278-2.225-6.024.118-8.367 2.343-2.343 6.09-2.396 8.368-.118z" opacity=".497"/>
            <path fill="#690589" d="M38.5 24a6.507 6.507 0 0 1-6.5-6.5c0-3.584 2.916-6.5 6.5-6.5s6.5 2.916 6.5 6.5-2.916 6.5-6.5 6.5zm.5-11c-2.757 0-5 2.243-5 5 0 2.756 2.243 5 5 5s5-2.243 5-5c0-2.756-2.243-5-5-5z"/>
        </g>
        <path fill="#50E3C2" fill-rule="nonzero" stroke="#690589" stroke-width="1.5" d="M81.207 64.535c4.414 0 8.1 3.388 8.506 7.815.406 4.426-2.6 8.438-6.938 9.253-4.152.78-8.213-1.613-9.61-5.568h-2.33c-1.397 3.955-5.458 6.348-9.61 5.568-4.338-.815-7.344-4.827-6.938-9.253.406-4.427 4.092-7.816 8.506-7.815h2.791v-2.82c0-.808.652-1.465 1.458-1.465.807 0 1.459.657 1.459 1.464v2.821h12.706zm0 0zM65.25 73.45h-5.5v-.65l-.65.65H59l.05.05-.05.05h.1l.65.65v-.65h5.5v.65l.65-.65h.1l-.05-.05.05-.05h-.1l-.65-.65v.65zm-2.8-2.7v5.5h-.65l.65.65v.1l.05-.05.05.05v-.1l.65-.65h-.65v-5.5h.65l-.65-.65V70l-.05.05-.05-.05v.1l-.65.65h.65zm-2.7 2.7h-.65l-.05.05.05.05h.65v-.1zm2.8-2.7v-.65l-.05-.05-.05.05v.65h.1zm16.2 1.5h-.5v.25l.5.5v-.25H79l-.5-.5-.25.25v.25h.5v-.25l.25-.25h-.25V72l-.25.25-.25-.25v.25H78l.25.25-.25.25h.25V73l.5-.5v-.25zm2 3h-.5v.25l-.25.25h.25V76l.5-.5v-.25zm-.25 0l-.25.25.5.5v-.25H81l-.5-.5zm-.25 0H80l.25.25v.25h.5v-.25l.25-.25h-.25V75l-.25.25-.25-.25v.25zm.5-5h-.5v.25l.5.5v-.25H81l-.5-.5-.25.25v.25h.5v-.25l.25-.25h-.25V70l-.25.25-.25-.25v.25H80l.25.25-.25.25h.25V71l.5-.5v-.25zm3 2h-.5v.25l-.25.25h.25V73l.5-.5v-.25zm-.25 0l-.25-.25v.25H83l.25.25v.25h.5v-.25l.25-.25h-.25V72l-.25.25zm-.25.25l.5.5v-.25H84l-.5-.5-.25.25z"/>
    </g>
</svg>
