<svg xmlns="http://www.w3.org/2000/svg" xmlns:xlink="http://www.w3.org/1999/xlink" width="246" height="183" viewBox="0 0 246 183">
    <defs>
        <path id="b" d="M10.256 0h209.488c3.567 0 4.86.371 6.163 1.069a7.27 7.27 0 0 1 3.024 3.024C229.63 5.396 230 6.689 230 10.256v146.488c0 3.567-.371 4.86-1.069 6.163a7.27 7.27 0 0 1-3.024 3.024c-1.303.698-2.596 1.069-6.163 1.069H10.256c-3.567 0-4.86-.371-6.163-1.069a7.27 7.27 0 0 1-3.024-3.024C.37 161.604 0 160.311 0 156.744V10.256c0-3.567.371-4.86 1.069-6.163a7.27 7.27 0 0 1 3.024-3.024C5.396.37 6.689 0 10.256 0z"/>
        <filter id="a" width="111.3%" height="115.6%" x="-5.7%" y="-6.6%" filterUnits="objectBoundingBox">
            <feOffset dy="2" in="SourceAlpha" result="shadowOffsetOuter1"/>
            <feGaussianBlur in="shadowOffsetOuter1" result="shadowBlurOuter1" stdDeviation="4"/>
            <feColorMatrix in="shadowBlurOuter1" values="0 0 0 0 1 0 0 0 0 0.401870265 0 0 0 0 0.571793485 0 0 0 0.198426573 0"/>
        </filter>
        <path id="c" d="M6.984 27.476l214-27.41A8 8 0 0 1 230 8V111a8 8 0 0 1-8 8H8a8 8 0 0 1-8-8V35.41a8 8 0 0 1 6.984-7.934z"/>
        <linearGradient id="d" x1="50%" x2="50%" y1="0%" y2="98.725%">
            <stop offset="0%" stop-color="#A78BFF"/>
            <stop offset="100%" stop-color="#4159FA"/>
        </linearGradient>
        <linearGradient id="f" x1="50%" x2="50%" y1="0%" y2="100%">
            <stop offset="0%" stop-color="#A78BFF"/>
            <stop offset="100%" stop-color="#5E73FF"/>
        </linearGradient>
    </defs>
    <g fill="none" fill-rule="evenodd">
        <g transform="translate(8 6)">
            <use fill="#000" filter="url(#a)" xlink:href="#b"/>
            <use fill="#FFF" xlink:href="#b"/>
        </g>
        <g transform="translate(8 54)">
            <mask id="e" fill="#fff">
                <use xlink:href="#c"/>
            </mask>
            <use fill="#745EFF" xlink:href="#c"/>
            <path fill="url(#d)" d="M-11 119c79.005 0 154.717-96 233.61-96 4.995 0 11.125 1.445 18.39 4.335V119H-11z" mask="url(#e)" opacity=".597"/>
            <path fill="url(#f)" d="M-8 119c73.99 0 144.894-38 218.778-38 4.678 0 10.418.572 17.222 1.716V119H-8z" mask="url(#e)" opacity=".806" transform="matrix(-1 0 0 1 220 0)"/>
        </g>
    </g>
</svg>
