<svg xmlns="http://www.w3.org/2000/svg" xmlns:xlink="http://www.w3.org/1999/xlink" width="360" height="563" viewBox="0 0 360 563">
    <defs>
        <linearGradient id="b" x1="100%" x2="0%" y1="63.921%" y2="36.079%">
            <stop offset="0%" stop-color="#F5C8F5"/>
            <stop offset="48.412%" stop-color="#DADDFA"/>
            <stop offset="100%" stop-color="#F1F4F9"/>
        </linearGradient>
        <path id="a" d="M0 0h1067v563H0z"/>
    </defs>
    <g fill="none" fill-rule="evenodd">
        <g>
            <mask id="c" fill="#fff">
                <use xlink:href="#a"/>
            </mask>
            <use fill="url(#b)" xlink:href="#a"/>
            <g fill="#FFF" mask="url(#c)" opacity=".652">
                <path d="M172.915 137H228L66.085 609H11zM292.117 424H313l-67.117 196H225zM45.117 424H66L-1.117 620H-22zM55.592-72H76L10.408 119H-10zM43.592-117H64L-1.592 74H-22zM219.777 195H364L193.223 691H49z"/>
            </g>
        </g>
        <g fill="#000" opacity=".149">
            <path d="M261 8V5.84a.84.84 0 0 1 .84-.84h.07a.84.84 0 0 1 .84.84V8h1.41a.84.84 0 0 1 .84.84v.32a.84.84 0 0 1-.84.84h-1.41v1.16a.84.84 0 0 1-.84.84h-.07a.84.84 0 0 1-.84-.84V10h-2.16a.84.84 0 0 1-.84-.84v-.32a.84.84 0 0 1 .84-.84H261zM261 98v-2.16a.84.84 0 0 1 .84-.84h.07a.84.84 0 0 1 .84.84V98h1.41a.84.84 0 0 1 .84.84v.32a.84.84 0 0 1-.84.84h-1.41v1.16a.84.84 0 0 1-.84.84h-.07a.84.84 0 0 1-.84-.84V100h-2.16a.84.84 0 0 1-.84-.84v-.32a.84.84 0 0 1 .84-.84H261zM279 8V5.84a.84.84 0 0 1 .84-.84h.07a.84.84 0 0 1 .84.84V8h1.41a.84.84 0 0 1 .84.84v.32a.84.84 0 0 1-.84.84h-1.41v1.16a.84.84 0 0 1-.84.84h-.07a.84.84 0 0 1-.84-.84V10h-2.16a.84.84 0 0 1-.84-.84v-.32a.84.84 0 0 1 .84-.84H279zM279 98v-2.16a.84.84 0 0 1 .84-.84h.07a.84.84 0 0 1 .84.84V98h1.41a.84.84 0 0 1 .84.84v.32a.84.84 0 0 1-.84.84h-1.41v1.16a.84.84 0 0 1-.84.84h-.07a.84.84 0 0 1-.84-.84V100h-2.16a.84.84 0 0 1-.84-.84v-.32a.84.84 0 0 1 .84-.84H279zM297 8V5.84a.84.84 0 0 1 .84-.84h.07a.84.84 0 0 1 .84.84V8h1.41a.84.84 0 0 1 .84.84v.32a.84.84 0 0 1-.84.84h-1.41v1.16a.84.84 0 0 1-.84.84h-.07a.84.84 0 0 1-.84-.84V10h-2.16a.84.84 0 0 1-.84-.84v-.32a.84.84 0 0 1 .84-.84H297zM297 98v-2.16a.84.84 0 0 1 .84-.84h.07a.84.84 0 0 1 .84.84V98h1.41a.84.84 0 0 1 .84.84v.32a.84.84 0 0 1-.84.84h-1.41v1.16a.84.84 0 0 1-.84.84h-.07a.84.84 0 0 1-.84-.84V100h-2.16a.84.84 0 0 1-.84-.84v-.32a.84.84 0 0 1 .84-.84H297zM315 8V5.84a.84.84 0 0 1 .84-.84h.07a.84.84 0 0 1 .84.84V8h1.41a.84.84 0 0 1 .84.84v.32a.84.84 0 0 1-.84.84h-1.41v1.16a.84.84 0 0 1-.84.84h-.07a.84.84 0 0 1-.84-.84V10h-2.16a.84.84 0 0 1-.84-.84v-.32a.84.84 0 0 1 .84-.84H315zM315 98v-2.16a.84.84 0 0 1 .84-.84h.07a.84.84 0 0 1 .84.84V98h1.41a.84.84 0 0 1 .84.84v.32a.84.84 0 0 1-.84.84h-1.41v1.16a.84.84 0 0 1-.84.84h-.07a.84.84 0 0 1-.84-.84V100h-2.16a.84.84 0 0 1-.84-.84v-.32a.84.84 0 0 1 .84-.84H315zM333 8V5.84a.84.84 0 0 1 .84-.84h.07a.84.84 0 0 1 .84.84V8h1.41a.84.84 0 0 1 .84.84v.32a.84.84 0 0 1-.84.84h-1.41v1.16a.84.84 0 0 1-.84.84h-.07a.84.84 0 0 1-.84-.84V10h-2.16a.84.84 0 0 1-.84-.84v-.32a.84.84 0 0 1 .84-.84H333zM333 98v-2.16a.84.84 0 0 1 .84-.84h.07a.84.84 0 0 1 .84.84V98h1.41a.84.84 0 0 1 .84.84v.32a.84.84 0 0 1-.84.84h-1.41v1.16a.84.84 0 0 1-.84.84h-.07a.84.84 0 0 1-.84-.84V100h-2.16a.84.84 0 0 1-.84-.84v-.32a.84.84 0 0 1 .84-.84H333zM351 8V5.84a.84.84 0 0 1 .84-.84h.07a.84.84 0 0 1 .84.84V8h1.41a.84.84 0 0 1 .84.84v.32a.84.84 0 0 1-.84.84h-1.41v1.16a.84.84 0 0 1-.84.84h-.07a.84.84 0 0 1-.84-.84V10h-2.16a.84.84 0 0 1-.84-.84v-.32a.84.84 0 0 1 .84-.84H351zM351 98v-2.16a.84.84 0 0 1 .84-.84h.07a.84.84 0 0 1 .84.84V98h1.41a.84.84 0 0 1 .84.84v.32a.84.84 0 0 1-.84.84h-1.41v1.16a.84.84 0 0 1-.84.84h-.07a.84.84 0 0 1-.84-.84V100h-2.16a.84.84 0 0 1-.84-.84v-.32a.84.84 0 0 1 .84-.84H351zM261 26v-2.16a.84.84 0 0 1 .84-.84h.07a.84.84 0 0 1 .84.84V26h1.41a.84.84 0 0 1 .84.84v.32a.84.84 0 0 1-.84.84h-1.41v1.16a.84.84 0 0 1-.84.84h-.07a.84.84 0 0 1-.84-.84V28h-2.16a.84.84 0 0 1-.84-.84v-.32a.84.84 0 0 1 .84-.84H261zM261 116v-2.16a.84.84 0 0 1 .84-.84h.07a.84.84 0 0 1 .84.84V116h1.41a.84.84 0 0 1 .84.84v.32a.84.84 0 0 1-.84.84h-1.41v1.16a.84.84 0 0 1-.84.84h-.07a.84.84 0 0 1-.84-.84V118h-2.16a.84.84 0 0 1-.84-.84v-.32a.84.84 0 0 1 .84-.84H261zM279 26v-2.16a.84.84 0 0 1 .84-.84h.07a.84.84 0 0 1 .84.84V26h1.41a.84.84 0 0 1 .84.84v.32a.84.84 0 0 1-.84.84h-1.41v1.16a.84.84 0 0 1-.84.84h-.07a.84.84 0 0 1-.84-.84V28h-2.16a.84.84 0 0 1-.84-.84v-.32a.84.84 0 0 1 .84-.84H279zM279 116v-2.16a.84.84 0 0 1 .84-.84h.07a.84.84 0 0 1 .84.84V116h1.41a.84.84 0 0 1 .84.84v.32a.84.84 0 0 1-.84.84h-1.41v1.16a.84.84 0 0 1-.84.84h-.07a.84.84 0 0 1-.84-.84V118h-2.16a.84.84 0 0 1-.84-.84v-.32a.84.84 0 0 1 .84-.84H279zM297 26v-2.16a.84.84 0 0 1 .84-.84h.07a.84.84 0 0 1 .84.84V26h1.41a.84.84 0 0 1 .84.84v.32a.84.84 0 0 1-.84.84h-1.41v1.16a.84.84 0 0 1-.84.84h-.07a.84.84 0 0 1-.84-.84V28h-2.16a.84.84 0 0 1-.84-.84v-.32a.84.84 0 0 1 .84-.84H297zM297 116v-2.16a.84.84 0 0 1 .84-.84h.07a.84.84 0 0 1 .84.84V116h1.41a.84.84 0 0 1 .84.84v.32a.84.84 0 0 1-.84.84h-1.41v1.16a.84.84 0 0 1-.84.84h-.07a.84.84 0 0 1-.84-.84V118h-2.16a.84.84 0 0 1-.84-.84v-.32a.84.84 0 0 1 .84-.84H297zM315 26v-2.16a.84.84 0 0 1 .84-.84h.07a.84.84 0 0 1 .84.84V26h1.41a.84.84 0 0 1 .84.84v.32a.84.84 0 0 1-.84.84h-1.41v1.16a.84.84 0 0 1-.84.84h-.07a.84.84 0 0 1-.84-.84V28h-2.16a.84.84 0 0 1-.84-.84v-.32a.84.84 0 0 1 .84-.84H315zM315 116v-2.16a.84.84 0 0 1 .84-.84h.07a.84.84 0 0 1 .84.84V116h1.41a.84.84 0 0 1 .84.84v.32a.84.84 0 0 1-.84.84h-1.41v1.16a.84.84 0 0 1-.84.84h-.07a.84.84 0 0 1-.84-.84V118h-2.16a.84.84 0 0 1-.84-.84v-.32a.84.84 0 0 1 .84-.84H315zM333 26v-2.16a.84.84 0 0 1 .84-.84h.07a.84.84 0 0 1 .84.84V26h1.41a.84.84 0 0 1 .84.84v.32a.84.84 0 0 1-.84.84h-1.41v1.16a.84.84 0 0 1-.84.84h-.07a.84.84 0 0 1-.84-.84V28h-2.16a.84.84 0 0 1-.84-.84v-.32a.84.84 0 0 1 .84-.84H333zM333 116v-2.16a.84.84 0 0 1 .84-.84h.07a.84.84 0 0 1 .84.84V116h1.41a.84.84 0 0 1 .84.84v.32a.84.84 0 0 1-.84.84h-1.41v1.16a.84.84 0 0 1-.84.84h-.07a.84.84 0 0 1-.84-.84V118h-2.16a.84.84 0 0 1-.84-.84v-.32a.84.84 0 0 1 .84-.84H333zM351 26v-2.16a.84.84 0 0 1 .84-.84h.07a.84.84 0 0 1 .84.84V26h1.41a.84.84 0 0 1 .84.84v.32a.84.84 0 0 1-.84.84h-1.41v1.16a.84.84 0 0 1-.84.84h-.07a.84.84 0 0 1-.84-.84V28h-2.16a.84.84 0 0 1-.84-.84v-.32a.84.84 0 0 1 .84-.84H351zM351 116v-2.16a.84.84 0 0 1 .84-.84h.07a.84.84 0 0 1 .84.84V116h1.41a.84.84 0 0 1 .84.84v.32a.84.84 0 0 1-.84.84h-1.41v1.16a.84.84 0 0 1-.84.84h-.07a.84.84 0 0 1-.84-.84V118h-2.16a.84.84 0 0 1-.84-.84v-.32a.84.84 0 0 1 .84-.84H351zM261 44v-2.16a.84.84 0 0 1 .84-.84h.07a.84.84 0 0 1 .84.84V44h1.41a.84.84 0 0 1 .84.84v.32a.84.84 0 0 1-.84.84h-1.41v1.16a.84.84 0 0 1-.84.84h-.07a.84.84 0 0 1-.84-.84V46h-2.16a.84.84 0 0 1-.84-.84v-.32a.84.84 0 0 1 .84-.84H261zM261 134v-2.16a.84.84 0 0 1 .84-.84h.07a.84.84 0 0 1 .84.84V134h1.41a.84.84 0 0 1 .84.84v.32a.84.84 0 0 1-.84.84h-1.41v1.16a.84.84 0 0 1-.84.84h-.07a.84.84 0 0 1-.84-.84V136h-2.16a.84.84 0 0 1-.84-.84v-.32a.84.84 0 0 1 .84-.84H261zM279 44v-2.16a.84.84 0 0 1 .84-.84h.07a.84.84 0 0 1 .84.84V44h1.41a.84.84 0 0 1 .84.84v.32a.84.84 0 0 1-.84.84h-1.41v1.16a.84.84 0 0 1-.84.84h-.07a.84.84 0 0 1-.84-.84V46h-2.16a.84.84 0 0 1-.84-.84v-.32a.84.84 0 0 1 .84-.84H279zM279 134v-2.16a.84.84 0 0 1 .84-.84h.07a.84.84 0 0 1 .84.84V134h1.41a.84.84 0 0 1 .84.84v.32a.84.84 0 0 1-.84.84h-1.41v1.16a.84.84 0 0 1-.84.84h-.07a.84.84 0 0 1-.84-.84V136h-2.16a.84.84 0 0 1-.84-.84v-.32a.84.84 0 0 1 .84-.84H279zM297 44v-2.16a.84.84 0 0 1 .84-.84h.07a.84.84 0 0 1 .84.84V44h1.41a.84.84 0 0 1 .84.84v.32a.84.84 0 0 1-.84.84h-1.41v1.16a.84.84 0 0 1-.84.84h-.07a.84.84 0 0 1-.84-.84V46h-2.16a.84.84 0 0 1-.84-.84v-.32a.84.84 0 0 1 .84-.84H297zM297 134v-2.16a.84.84 0 0 1 .84-.84h.07a.84.84 0 0 1 .84.84V134h1.41a.84.84 0 0 1 .84.84v.32a.84.84 0 0 1-.84.84h-1.41v1.16a.84.84 0 0 1-.84.84h-.07a.84.84 0 0 1-.84-.84V136h-2.16a.84.84 0 0 1-.84-.84v-.32a.84.84 0 0 1 .84-.84H297zM315 44v-2.16a.84.84 0 0 1 .84-.84h.07a.84.84 0 0 1 .84.84V44h1.41a.84.84 0 0 1 .84.84v.32a.84.84 0 0 1-.84.84h-1.41v1.16a.84.84 0 0 1-.84.84h-.07a.84.84 0 0 1-.84-.84V46h-2.16a.84.84 0 0 1-.84-.84v-.32a.84.84 0 0 1 .84-.84H315zM315 134v-2.16a.84.84 0 0 1 .84-.84h.07a.84.84 0 0 1 .84.84V134h1.41a.84.84 0 0 1 .84.84v.32a.84.84 0 0 1-.84.84h-1.41v1.16a.84.84 0 0 1-.84.84h-.07a.84.84 0 0 1-.84-.84V136h-2.16a.84.84 0 0 1-.84-.84v-.32a.84.84 0 0 1 .84-.84H315zM333 44v-2.16a.84.84 0 0 1 .84-.84h.07a.84.84 0 0 1 .84.84V44h1.41a.84.84 0 0 1 .84.84v.32a.84.84 0 0 1-.84.84h-1.41v1.16a.84.84 0 0 1-.84.84h-.07a.84.84 0 0 1-.84-.84V46h-2.16a.84.84 0 0 1-.84-.84v-.32a.84.84 0 0 1 .84-.84H333zM333 134v-2.16a.84.84 0 0 1 .84-.84h.07a.84.84 0 0 1 .84.84V134h1.41a.84.84 0 0 1 .84.84v.32a.84.84 0 0 1-.84.84h-1.41v1.16a.84.84 0 0 1-.84.84h-.07a.84.84 0 0 1-.84-.84V136h-2.16a.84.84 0 0 1-.84-.84v-.32a.84.84 0 0 1 .84-.84H333zM351 44v-2.16a.84.84 0 0 1 .84-.84h.07a.84.84 0 0 1 .84.84V44h1.41a.84.84 0 0 1 .84.84v.32a.84.84 0 0 1-.84.84h-1.41v1.16a.84.84 0 0 1-.84.84h-.07a.84.84 0 0 1-.84-.84V46h-2.16a.84.84 0 0 1-.84-.84v-.32a.84.84 0 0 1 .84-.84H351zM351 134v-2.16a.84.84 0 0 1 .84-.84h.07a.84.84 0 0 1 .84.84V134h1.41a.84.84 0 0 1 .84.84v.32a.84.84 0 0 1-.84.84h-1.41v1.16a.84.84 0 0 1-.84.84h-.07a.84.84 0 0 1-.84-.84V136h-2.16a.84.84 0 0 1-.84-.84v-.32a.84.84 0 0 1 .84-.84H351zM261 62v-2.16a.84.84 0 0 1 .84-.84h.07a.84.84 0 0 1 .84.84V62h1.41a.84.84 0 0 1 .84.84v.32a.84.84 0 0 1-.84.84h-1.41v1.16a.84.84 0 0 1-.84.84h-.07a.84.84 0 0 1-.84-.84V64h-2.16a.84.84 0 0 1-.84-.84v-.32a.84.84 0 0 1 .84-.84H261zM261 152v-2.16a.84.84 0 0 1 .84-.84h.07a.84.84 0 0 1 .84.84V152h1.41a.84.84 0 0 1 .84.84v.32a.84.84 0 0 1-.84.84h-1.41v1.16a.84.84 0 0 1-.84.84h-.07a.84.84 0 0 1-.84-.84V154h-2.16a.84.84 0 0 1-.84-.84v-.32a.84.84 0 0 1 .84-.84H261zM279 62v-2.16a.84.84 0 0 1 .84-.84h.07a.84.84 0 0 1 .84.84V62h1.41a.84.84 0 0 1 .84.84v.32a.84.84 0 0 1-.84.84h-1.41v1.16a.84.84 0 0 1-.84.84h-.07a.84.84 0 0 1-.84-.84V64h-2.16a.84.84 0 0 1-.84-.84v-.32a.84.84 0 0 1 .84-.84H279zM279 152v-2.16a.84.84 0 0 1 .84-.84h.07a.84.84 0 0 1 .84.84V152h1.41a.84.84 0 0 1 .84.84v.32a.84.84 0 0 1-.84.84h-1.41v1.16a.84.84 0 0 1-.84.84h-.07a.84.84 0 0 1-.84-.84V154h-2.16a.84.84 0 0 1-.84-.84v-.32a.84.84 0 0 1 .84-.84H279zM297 62v-2.16a.84.84 0 0 1 .84-.84h.07a.84.84 0 0 1 .84.84V62h1.41a.84.84 0 0 1 .84.84v.32a.84.84 0 0 1-.84.84h-1.41v1.16a.84.84 0 0 1-.84.84h-.07a.84.84 0 0 1-.84-.84V64h-2.16a.84.84 0 0 1-.84-.84v-.32a.84.84 0 0 1 .84-.84H297zM297 152v-2.16a.84.84 0 0 1 .84-.84h.07a.84.84 0 0 1 .84.84V152h1.41a.84.84 0 0 1 .84.84v.32a.84.84 0 0 1-.84.84h-1.41v1.16a.84.84 0 0 1-.84.84h-.07a.84.84 0 0 1-.84-.84V154h-2.16a.84.84 0 0 1-.84-.84v-.32a.84.84 0 0 1 .84-.84H297zM315 62v-2.16a.84.84 0 0 1 .84-.84h.07a.84.84 0 0 1 .84.84V62h1.41a.84.84 0 0 1 .84.84v.32a.84.84 0 0 1-.84.84h-1.41v1.16a.84.84 0 0 1-.84.84h-.07a.84.84 0 0 1-.84-.84V64h-2.16a.84.84 0 0 1-.84-.84v-.32a.84.84 0 0 1 .84-.84H315zM315 152v-2.16a.84.84 0 0 1 .84-.84h.07a.84.84 0 0 1 .84.84V152h1.41a.84.84 0 0 1 .84.84v.32a.84.84 0 0 1-.84.84h-1.41v1.16a.84.84 0 0 1-.84.84h-.07a.84.84 0 0 1-.84-.84V154h-2.16a.84.84 0 0 1-.84-.84v-.32a.84.84 0 0 1 .84-.84H315zM333 62v-2.16a.84.84 0 0 1 .84-.84h.07a.84.84 0 0 1 .84.84V62h1.41a.84.84 0 0 1 .84.84v.32a.84.84 0 0 1-.84.84h-1.41v1.16a.84.84 0 0 1-.84.84h-.07a.84.84 0 0 1-.84-.84V64h-2.16a.84.84 0 0 1-.84-.84v-.32a.84.84 0 0 1 .84-.84H333zM333 152v-2.16a.84.84 0 0 1 .84-.84h.07a.84.84 0 0 1 .84.84V152h1.41a.84.84 0 0 1 .84.84v.32a.84.84 0 0 1-.84.84h-1.41v1.16a.84.84 0 0 1-.84.84h-.07a.84.84 0 0 1-.84-.84V154h-2.16a.84.84 0 0 1-.84-.84v-.32a.84.84 0 0 1 .84-.84H333zM351 62v-2.16a.84.84 0 0 1 .84-.84h.07a.84.84 0 0 1 .84.84V62h1.41a.84.84 0 0 1 .84.84v.32a.84.84 0 0 1-.84.84h-1.41v1.16a.84.84 0 0 1-.84.84h-.07a.84.84 0 0 1-.84-.84V64h-2.16a.84.84 0 0 1-.84-.84v-.32a.84.84 0 0 1 .84-.84H351zM351 152v-2.16a.84.84 0 0 1 .84-.84h.07a.84.84 0 0 1 .84.84V152h1.41a.84.84 0 0 1 .84.84v.32a.84.84 0 0 1-.84.84h-1.41v1.16a.84.84 0 0 1-.84.84h-.07a.84.84 0 0 1-.84-.84V154h-2.16a.84.84 0 0 1-.84-.84v-.32a.84.84 0 0 1 .84-.84H351zM261 80v-2.16a.84.84 0 0 1 .84-.84h.07a.84.84 0 0 1 .84.84V80h1.41a.84.84 0 0 1 .84.84v.32a.84.84 0 0 1-.84.84h-1.41v1.16a.84.84 0 0 1-.84.84h-.07a.84.84 0 0 1-.84-.84V82h-2.16a.84.84 0 0 1-.84-.84v-.32a.84.84 0 0 1 .84-.84H261zM261 170v-2.16a.84.84 0 0 1 .84-.84h.07a.84.84 0 0 1 .84.84V170h1.41a.84.84 0 0 1 .84.84v.32a.84.84 0 0 1-.84.84h-1.41v1.16a.84.84 0 0 1-.84.84h-.07a.84.84 0 0 1-.84-.84V172h-2.16a.84.84 0 0 1-.84-.84v-.32a.84.84 0 0 1 .84-.84H261zM279 80v-2.16a.84.84 0 0 1 .84-.84h.07a.84.84 0 0 1 .84.84V80h1.41a.84.84 0 0 1 .84.84v.32a.84.84 0 0 1-.84.84h-1.41v1.16a.84.84 0 0 1-.84.84h-.07a.84.84 0 0 1-.84-.84V82h-2.16a.84.84 0 0 1-.84-.84v-.32a.84.84 0 0 1 .84-.84H279zM279 170v-2.16a.84.84 0 0 1 .84-.84h.07a.84.84 0 0 1 .84.84V170h1.41a.84.84 0 0 1 .84.84v.32a.84.84 0 0 1-.84.84h-1.41v1.16a.84.84 0 0 1-.84.84h-.07a.84.84 0 0 1-.84-.84V172h-2.16a.84.84 0 0 1-.84-.84v-.32a.84.84 0 0 1 .84-.84H279zM297 80v-2.16a.84.84 0 0 1 .84-.84h.07a.84.84 0 0 1 .84.84V80h1.41a.84.84 0 0 1 .84.84v.32a.84.84 0 0 1-.84.84h-1.41v1.16a.84.84 0 0 1-.84.84h-.07a.84.84 0 0 1-.84-.84V82h-2.16a.84.84 0 0 1-.84-.84v-.32a.84.84 0 0 1 .84-.84H297zM297 170v-2.16a.84.84 0 0 1 .84-.84h.07a.84.84 0 0 1 .84.84V170h1.41a.84.84 0 0 1 .84.84v.32a.84.84 0 0 1-.84.84h-1.41v1.16a.84.84 0 0 1-.84.84h-.07a.84.84 0 0 1-.84-.84V172h-2.16a.84.84 0 0 1-.84-.84v-.32a.84.84 0 0 1 .84-.84H297zM315 80v-2.16a.84.84 0 0 1 .84-.84h.07a.84.84 0 0 1 .84.84V80h1.41a.84.84 0 0 1 .84.84v.32a.84.84 0 0 1-.84.84h-1.41v1.16a.84.84 0 0 1-.84.84h-.07a.84.84 0 0 1-.84-.84V82h-2.16a.84.84 0 0 1-.84-.84v-.32a.84.84 0 0 1 .84-.84H315zM315 170v-2.16a.84.84 0 0 1 .84-.84h.07a.84.84 0 0 1 .84.84V170h1.41a.84.84 0 0 1 .84.84v.32a.84.84 0 0 1-.84.84h-1.41v1.16a.84.84 0 0 1-.84.84h-.07a.84.84 0 0 1-.84-.84V172h-2.16a.84.84 0 0 1-.84-.84v-.32a.84.84 0 0 1 .84-.84H315zM333 80v-2.16a.84.84 0 0 1 .84-.84h.07a.84.84 0 0 1 .84.84V80h1.41a.84.84 0 0 1 .84.84v.32a.84.84 0 0 1-.84.84h-1.41v1.16a.84.84 0 0 1-.84.84h-.07a.84.84 0 0 1-.84-.84V82h-2.16a.84.84 0 0 1-.84-.84v-.32a.84.84 0 0 1 .84-.84H333zM333 170v-2.16a.84.84 0 0 1 .84-.84h.07a.84.84 0 0 1 .84.84V170h1.41a.84.84 0 0 1 .84.84v.32a.84.84 0 0 1-.84.84h-1.41v1.16a.84.84 0 0 1-.84.84h-.07a.84.84 0 0 1-.84-.84V172h-2.16a.84.84 0 0 1-.84-.84v-.32a.84.84 0 0 1 .84-.84H333zM351 80v-2.16a.84.84 0 0 1 .84-.84h.07a.84.84 0 0 1 .84.84V80h1.41a.84.84 0 0 1 .84.84v.32a.84.84 0 0 1-.84.84h-1.41v1.16a.84.84 0 0 1-.84.84h-.07a.84.84 0 0 1-.84-.84V82h-2.16a.84.84 0 0 1-.84-.84v-.32a.84.84 0 0 1 .84-.84H351zM351 170v-2.16a.84.84 0 0 1 .84-.84h.07a.84.84 0 0 1 .84.84V170h1.41a.84.84 0 0 1 .84.84v.32a.84.84 0 0 1-.84.84h-1.41v1.16a.84.84 0 0 1-.84.84h-.07a.84.84 0 0 1-.84-.84V172h-2.16a.84.84 0 0 1-.84-.84v-.32a.84.84 0 0 1 .84-.84H351zM261 188v-2.16a.84.84 0 0 1 .84-.84h.07a.84.84 0 0 1 .84.84V188h1.41a.84.84 0 0 1 .84.84v.32a.84.84 0 0 1-.84.84h-1.41v1.16a.84.84 0 0 1-.84.84h-.07a.84.84 0 0 1-.84-.84V190h-2.16a.84.84 0 0 1-.84-.84v-.32a.84.84 0 0 1 .84-.84H261zM279 188v-2.16a.84.84 0 0 1 .84-.84h.07a.84.84 0 0 1 .84.84V188h1.41a.84.84 0 0 1 .84.84v.32a.84.84 0 0 1-.84.84h-1.41v1.16a.84.84 0 0 1-.84.84h-.07a.84.84 0 0 1-.84-.84V190h-2.16a.84.84 0 0 1-.84-.84v-.32a.84.84 0 0 1 .84-.84H279zM297 188v-2.16a.84.84 0 0 1 .84-.84h.07a.84.84 0 0 1 .84.84V188h1.41a.84.84 0 0 1 .84.84v.32a.84.84 0 0 1-.84.84h-1.41v1.16a.84.84 0 0 1-.84.84h-.07a.84.84 0 0 1-.84-.84V190h-2.16a.84.84 0 0 1-.84-.84v-.32a.84.84 0 0 1 .84-.84H297zM315 188v-2.16a.84.84 0 0 1 .84-.84h.07a.84.84 0 0 1 .84.84V188h1.41a.84.84 0 0 1 .84.84v.32a.84.84 0 0 1-.84.84h-1.41v1.16a.84.84 0 0 1-.84.84h-.07a.84.84 0 0 1-.84-.84V190h-2.16a.84.84 0 0 1-.84-.84v-.32a.84.84 0 0 1 .84-.84H315zM333 188v-2.16a.84.84 0 0 1 .84-.84h.07a.84.84 0 0 1 .84.84V188h1.41a.84.84 0 0 1 .84.84v.32a.84.84 0 0 1-.84.84h-1.41v1.16a.84.84 0 0 1-.84.84h-.07a.84.84 0 0 1-.84-.84V190h-2.16a.84.84 0 0 1-.84-.84v-.32a.84.84 0 0 1 .84-.84H333zM351 188v-2.16a.84.84 0 0 1 .84-.84h.07a.84.84 0 0 1 .84.84V188h1.41a.84.84 0 0 1 .84.84v.32a.84.84 0 0 1-.84.84h-1.41v1.16a.84.84 0 0 1-.84.84h-.07a.84.84 0 0 1-.84-.84V190h-2.16a.84.84 0 0 1-.84-.84v-.32a.84.84 0 0 1 .84-.84H351zM261 206v-2.16a.84.84 0 0 1 .84-.84h.07a.84.84 0 0 1 .84.84V206h1.41a.84.84 0 0 1 .84.84v.32a.84.84 0 0 1-.84.84h-1.41v1.16a.84.84 0 0 1-.84.84h-.07a.84.84 0 0 1-.84-.84V208h-2.16a.84.84 0 0 1-.84-.84v-.32a.84.84 0 0 1 .84-.84H261zM279 206v-2.16a.84.84 0 0 1 .84-.84h.07a.84.84 0 0 1 .84.84V206h1.41a.84.84 0 0 1 .84.84v.32a.84.84 0 0 1-.84.84h-1.41v1.16a.84.84 0 0 1-.84.84h-.07a.84.84 0 0 1-.84-.84V208h-2.16a.84.84 0 0 1-.84-.84v-.32a.84.84 0 0 1 .84-.84H279zM297 206v-2.16a.84.84 0 0 1 .84-.84h.07a.84.84 0 0 1 .84.84V206h1.41a.84.84 0 0 1 .84.84v.32a.84.84 0 0 1-.84.84h-1.41v1.16a.84.84 0 0 1-.84.84h-.07a.84.84 0 0 1-.84-.84V208h-2.16a.84.84 0 0 1-.84-.84v-.32a.84.84 0 0 1 .84-.84H297zM315 206v-2.16a.84.84 0 0 1 .84-.84h.07a.84.84 0 0 1 .84.84V206h1.41a.84.84 0 0 1 .84.84v.32a.84.84 0 0 1-.84.84h-1.41v1.16a.84.84 0 0 1-.84.84h-.07a.84.84 0 0 1-.84-.84V208h-2.16a.84.84 0 0 1-.84-.84v-.32a.84.84 0 0 1 .84-.84H315zM333 206v-2.16a.84.84 0 0 1 .84-.84h.07a.84.84 0 0 1 .84.84V206h1.41a.84.84 0 0 1 .84.84v.32a.84.84 0 0 1-.84.84h-1.41v1.16a.84.84 0 0 1-.84.84h-.07a.84.84 0 0 1-.84-.84V208h-2.16a.84.84 0 0 1-.84-.84v-.32a.84.84 0 0 1 .84-.84H333zM351 206v-2.16a.84.84 0 0 1 .84-.84h.07a.84.84 0 0 1 .84.84V206h1.41a.84.84 0 0 1 .84.84v.32a.84.84 0 0 1-.84.84h-1.41v1.16a.84.84 0 0 1-.84.84h-.07a.84.84 0 0 1-.84-.84V208h-2.16a.84.84 0 0 1-.84-.84v-.32a.84.84 0 0 1 .84-.84H351zM261 224v-2.16a.84.84 0 0 1 .84-.84h.07a.84.84 0 0 1 .84.84V224h1.41a.84.84 0 0 1 .84.84v.32a.84.84 0 0 1-.84.84h-1.41v1.16a.84.84 0 0 1-.84.84h-.07a.84.84 0 0 1-.84-.84V226h-2.16a.84.84 0 0 1-.84-.84v-.32a.84.84 0 0 1 .84-.84H261zM279 224v-2.16a.84.84 0 0 1 .84-.84h.07a.84.84 0 0 1 .84.84V224h1.41a.84.84 0 0 1 .84.84v.32a.84.84 0 0 1-.84.84h-1.41v1.16a.84.84 0 0 1-.84.84h-.07a.84.84 0 0 1-.84-.84V226h-2.16a.84.84 0 0 1-.84-.84v-.32a.84.84 0 0 1 .84-.84H279zM297 224v-2.16a.84.84 0 0 1 .84-.84h.07a.84.84 0 0 1 .84.84V224h1.41a.84.84 0 0 1 .84.84v.32a.84.84 0 0 1-.84.84h-1.41v1.16a.84.84 0 0 1-.84.84h-.07a.84.84 0 0 1-.84-.84V226h-2.16a.84.84 0 0 1-.84-.84v-.32a.84.84 0 0 1 .84-.84H297zM315 224v-2.16a.84.84 0 0 1 .84-.84h.07a.84.84 0 0 1 .84.84V224h1.41a.84.84 0 0 1 .84.84v.32a.84.84 0 0 1-.84.84h-1.41v1.16a.84.84 0 0 1-.84.84h-.07a.84.84 0 0 1-.84-.84V226h-2.16a.84.84 0 0 1-.84-.84v-.32a.84.84 0 0 1 .84-.84H315zM333 224v-2.16a.84.84 0 0 1 .84-.84h.07a.84.84 0 0 1 .84.84V224h1.41a.84.84 0 0 1 .84.84v.32a.84.84 0 0 1-.84.84h-1.41v1.16a.84.84 0 0 1-.84.84h-.07a.84.84 0 0 1-.84-.84V226h-2.16a.84.84 0 0 1-.84-.84v-.32a.84.84 0 0 1 .84-.84H333zM351 224v-2.16a.84.84 0 0 1 .84-.84h.07a.84.84 0 0 1 .84.84V224h1.41a.84.84 0 0 1 .84.84v.32a.84.84 0 0 1-.84.84h-1.41v1.16a.84.84 0 0 1-.84.84h-.07a.84.84 0 0 1-.84-.84V226h-2.16a.84.84 0 0 1-.84-.84v-.32a.84.84 0 0 1 .84-.84H351zM261 242v-2.16a.84.84 0 0 1 .84-.84h.07a.84.84 0 0 1 .84.84V242h1.41a.84.84 0 0 1 .84.84v.32a.84.84 0 0 1-.84.84h-1.41v1.16a.84.84 0 0 1-.84.84h-.07a.84.84 0 0 1-.84-.84V244h-2.16a.84.84 0 0 1-.84-.84v-.32a.84.84 0 0 1 .84-.84H261zM279 242v-2.16a.84.84 0 0 1 .84-.84h.07a.84.84 0 0 1 .84.84V242h1.41a.84.84 0 0 1 .84.84v.32a.84.84 0 0 1-.84.84h-1.41v1.16a.84.84 0 0 1-.84.84h-.07a.84.84 0 0 1-.84-.84V244h-2.16a.84.84 0 0 1-.84-.84v-.32a.84.84 0 0 1 .84-.84H279zM297 242v-2.16a.84.84 0 0 1 .84-.84h.07a.84.84 0 0 1 .84.84V242h1.41a.84.84 0 0 1 .84.84v.32a.84.84 0 0 1-.84.84h-1.41v1.16a.84.84 0 0 1-.84.84h-.07a.84.84 0 0 1-.84-.84V244h-2.16a.84.84 0 0 1-.84-.84v-.32a.84.84 0 0 1 .84-.84H297zM315 242v-2.16a.84.84 0 0 1 .84-.84h.07a.84.84 0 0 1 .84.84V242h1.41a.84.84 0 0 1 .84.84v.32a.84.84 0 0 1-.84.84h-1.41v1.16a.84.84 0 0 1-.84.84h-.07a.84.84 0 0 1-.84-.84V244h-2.16a.84.84 0 0 1-.84-.84v-.32a.84.84 0 0 1 .84-.84H315zM333 242v-2.16a.84.84 0 0 1 .84-.84h.07a.84.84 0 0 1 .84.84V242h1.41a.84.84 0 0 1 .84.84v.32a.84.84 0 0 1-.84.84h-1.41v1.16a.84.84 0 0 1-.84.84h-.07a.84.84 0 0 1-.84-.84V244h-2.16a.84.84 0 0 1-.84-.84v-.32a.84.84 0 0 1 .84-.84H333zM351 242v-2.16a.84.84 0 0 1 .84-.84h.07a.84.84 0 0 1 .84.84V242h1.41a.84.84 0 0 1 .84.84v.32a.84.84 0 0 1-.84.84h-1.41v1.16a.84.84 0 0 1-.84.84h-.07a.84.84 0 0 1-.84-.84V244h-2.16a.84.84 0 0 1-.84-.84v-.32a.84.84 0 0 1 .84-.84H351zM261 260v-2.16a.84.84 0 0 1 .84-.84h.07a.84.84 0 0 1 .84.84V260h1.41a.84.84 0 0 1 .84.84v.32a.84.84 0 0 1-.84.84h-1.41v1.16a.84.84 0 0 1-.84.84h-.07a.84.84 0 0 1-.84-.84V262h-2.16a.84.84 0 0 1-.84-.84v-.32a.84.84 0 0 1 .84-.84H261zM279 260v-2.16a.84.84 0 0 1 .84-.84h.07a.84.84 0 0 1 .84.84V260h1.41a.84.84 0 0 1 .84.84v.32a.84.84 0 0 1-.84.84h-1.41v1.16a.84.84 0 0 1-.84.84h-.07a.84.84 0 0 1-.84-.84V262h-2.16a.84.84 0 0 1-.84-.84v-.32a.84.84 0 0 1 .84-.84H279zM297 260v-2.16a.84.84 0 0 1 .84-.84h.07a.84.84 0 0 1 .84.84V260h1.41a.84.84 0 0 1 .84.84v.32a.84.84 0 0 1-.84.84h-1.41v1.16a.84.84 0 0 1-.84.84h-.07a.84.84 0 0 1-.84-.84V262h-2.16a.84.84 0 0 1-.84-.84v-.32a.84.84 0 0 1 .84-.84H297zM315 260v-2.16a.84.84 0 0 1 .84-.84h.07a.84.84 0 0 1 .84.84V260h1.41a.84.84 0 0 1 .84.84v.32a.84.84 0 0 1-.84.84h-1.41v1.16a.84.84 0 0 1-.84.84h-.07a.84.84 0 0 1-.84-.84V262h-2.16a.84.84 0 0 1-.84-.84v-.32a.84.84 0 0 1 .84-.84H315zM333 260v-2.16a.84.84 0 0 1 .84-.84h.07a.84.84 0 0 1 .84.84V260h1.41a.84.84 0 0 1 .84.84v.32a.84.84 0 0 1-.84.84h-1.41v1.16a.84.84 0 0 1-.84.84h-.07a.84.84 0 0 1-.84-.84V262h-2.16a.84.84 0 0 1-.84-.84v-.32a.84.84 0 0 1 .84-.84H333zM351 260v-2.16a.84.84 0 0 1 .84-.84h.07a.84.84 0 0 1 .84.84V260h1.41a.84.84 0 0 1 .84.84v.32a.84.84 0 0 1-.84.84h-1.41v1.16a.84.84 0 0 1-.84.84h-.07a.84.84 0 0 1-.84-.84V262h-2.16a.84.84 0 0 1-.84-.84v-.32a.84.84 0 0 1 .84-.84H351zM261 278v-2.16a.84.84 0 0 1 .84-.84h.07a.84.84 0 0 1 .84.84V278h1.41a.84.84 0 0 1 .84.84v.32a.84.84 0 0 1-.84.84h-1.41v1.16a.84.84 0 0 1-.84.84h-.07a.84.84 0 0 1-.84-.84V280h-2.16a.84.84 0 0 1-.84-.84v-.32a.84.84 0 0 1 .84-.84H261zM279 278v-2.16a.84.84 0 0 1 .84-.84h.07a.84.84 0 0 1 .84.84V278h1.41a.84.84 0 0 1 .84.84v.32a.84.84 0 0 1-.84.84h-1.41v1.16a.84.84 0 0 1-.84.84h-.07a.84.84 0 0 1-.84-.84V280h-2.16a.84.84 0 0 1-.84-.84v-.32a.84.84 0 0 1 .84-.84H279zM297 278v-2.16a.84.84 0 0 1 .84-.84h.07a.84.84 0 0 1 .84.84V278h1.41a.84.84 0 0 1 .84.84v.32a.84.84 0 0 1-.84.84h-1.41v1.16a.84.84 0 0 1-.84.84h-.07a.84.84 0 0 1-.84-.84V280h-2.16a.84.84 0 0 1-.84-.84v-.32a.84.84 0 0 1 .84-.84H297zM315 278v-2.16a.84.84 0 0 1 .84-.84h.07a.84.84 0 0 1 .84.84V278h1.41a.84.84 0 0 1 .84.84v.32a.84.84 0 0 1-.84.84h-1.41v1.16a.84.84 0 0 1-.84.84h-.07a.84.84 0 0 1-.84-.84V280h-2.16a.84.84 0 0 1-.84-.84v-.32a.84.84 0 0 1 .84-.84H315zM333 278v-2.16a.84.84 0 0 1 .84-.84h.07a.84.84 0 0 1 .84.84V278h1.41a.84.84 0 0 1 .84.84v.32a.84.84 0 0 1-.84.84h-1.41v1.16a.84.84 0 0 1-.84.84h-.07a.84.84 0 0 1-.84-.84V280h-2.16a.84.84 0 0 1-.84-.84v-.32a.84.84 0 0 1 .84-.84H333zM351 278v-2.16a.84.84 0 0 1 .84-.84h.07a.84.84 0 0 1 .84.84V278h1.41a.84.84 0 0 1 .84.84v.32a.84.84 0 0 1-.84.84h-1.41v1.16a.84.84 0 0 1-.84.84h-.07a.84.84 0 0 1-.84-.84V280h-2.16a.84.84 0 0 1-.84-.84v-.32a.84.84 0 0 1 .84-.84H351zM261 296v-2.16a.84.84 0 0 1 .84-.84h.07a.84.84 0 0 1 .84.84V296h1.41a.84.84 0 0 1 .84.84v.32a.84.84 0 0 1-.84.84h-1.41v1.16a.84.84 0 0 1-.84.84h-.07a.84.84 0 0 1-.84-.84V298h-2.16a.84.84 0 0 1-.84-.84v-.32a.84.84 0 0 1 .84-.84H261zM279 296v-2.16a.84.84 0 0 1 .84-.84h.07a.84.84 0 0 1 .84.84V296h1.41a.84.84 0 0 1 .84.84v.32a.84.84 0 0 1-.84.84h-1.41v1.16a.84.84 0 0 1-.84.84h-.07a.84.84 0 0 1-.84-.84V298h-2.16a.84.84 0 0 1-.84-.84v-.32a.84.84 0 0 1 .84-.84H279zM297 296v-2.16a.84.84 0 0 1 .84-.84h.07a.84.84 0 0 1 .84.84V296h1.41a.84.84 0 0 1 .84.84v.32a.84.84 0 0 1-.84.84h-1.41v1.16a.84.84 0 0 1-.84.84h-.07a.84.84 0 0 1-.84-.84V298h-2.16a.84.84 0 0 1-.84-.84v-.32a.84.84 0 0 1 .84-.84H297zM315 296v-2.16a.84.84 0 0 1 .84-.84h.07a.84.84 0 0 1 .84.84V296h1.41a.84.84 0 0 1 .84.84v.32a.84.84 0 0 1-.84.84h-1.41v1.16a.84.84 0 0 1-.84.84h-.07a.84.84 0 0 1-.84-.84V298h-2.16a.84.84 0 0 1-.84-.84v-.32a.84.84 0 0 1 .84-.84H315zM333 296v-2.16a.84.84 0 0 1 .84-.84h.07a.84.84 0 0 1 .84.84V296h1.41a.84.84 0 0 1 .84.84v.32a.84.84 0 0 1-.84.84h-1.41v1.16a.84.84 0 0 1-.84.84h-.07a.84.84 0 0 1-.84-.84V298h-2.16a.84.84 0 0 1-.84-.84v-.32a.84.84 0 0 1 .84-.84H333zM351 296v-2.16a.84.84 0 0 1 .84-.84h.07a.84.84 0 0 1 .84.84V296h1.41a.84.84 0 0 1 .84.84v.32a.84.84 0 0 1-.84.84h-1.41v1.16a.84.84 0 0 1-.84.84h-.07a.84.84 0 0 1-.84-.84V298h-2.16a.84.84 0 0 1-.84-.84v-.32a.84.84 0 0 1 .84-.84H351zM261 314v-2.16a.84.84 0 0 1 .84-.84h.07a.84.84 0 0 1 .84.84V314h1.41a.84.84 0 0 1 .84.84v.32a.84.84 0 0 1-.84.84h-1.41v1.16a.84.84 0 0 1-.84.84h-.07a.84.84 0 0 1-.84-.84V316h-2.16a.84.84 0 0 1-.84-.84v-.32a.84.84 0 0 1 .84-.84H261zM279 314v-2.16a.84.84 0 0 1 .84-.84h.07a.84.84 0 0 1 .84.84V314h1.41a.84.84 0 0 1 .84.84v.32a.84.84 0 0 1-.84.84h-1.41v1.16a.84.84 0 0 1-.84.84h-.07a.84.84 0 0 1-.84-.84V316h-2.16a.84.84 0 0 1-.84-.84v-.32a.84.84 0 0 1 .84-.84H279zM297 314v-2.16a.84.84 0 0 1 .84-.84h.07a.84.84 0 0 1 .84.84V314h1.41a.84.84 0 0 1 .84.84v.32a.84.84 0 0 1-.84.84h-1.41v1.16a.84.84 0 0 1-.84.84h-.07a.84.84 0 0 1-.84-.84V316h-2.16a.84.84 0 0 1-.84-.84v-.32a.84.84 0 0 1 .84-.84H297zM315 314v-2.16a.84.84 0 0 1 .84-.84h.07a.84.84 0 0 1 .84.84V314h1.41a.84.84 0 0 1 .84.84v.32a.84.84 0 0 1-.84.84h-1.41v1.16a.84.84 0 0 1-.84.84h-.07a.84.84 0 0 1-.84-.84V316h-2.16a.84.84 0 0 1-.84-.84v-.32a.84.84 0 0 1 .84-.84H315zM333 314v-2.16a.84.84 0 0 1 .84-.84h.07a.84.84 0 0 1 .84.84V314h1.41a.84.84 0 0 1 .84.84v.32a.84.84 0 0 1-.84.84h-1.41v1.16a.84.84 0 0 1-.84.84h-.07a.84.84 0 0 1-.84-.84V316h-2.16a.84.84 0 0 1-.84-.84v-.32a.84.84 0 0 1 .84-.84H333zM351 314v-2.16a.84.84 0 0 1 .84-.84h.07a.84.84 0 0 1 .84.84V314h1.41a.84.84 0 0 1 .84.84v.32a.84.84 0 0 1-.84.84h-1.41v1.16a.84.84 0 0 1-.84.84h-.07a.84.84 0 0 1-.84-.84V316h-2.16a.84.84 0 0 1-.84-.84v-.32a.84.84 0 0 1 .84-.84H351zM261 332v-2.16a.84.84 0 0 1 .84-.84h.07a.84.84 0 0 1 .84.84V332h1.41a.84.84 0 0 1 .84.84v.32a.84.84 0 0 1-.84.84h-1.41v1.16a.84.84 0 0 1-.84.84h-.07a.84.84 0 0 1-.84-.84V334h-2.16a.84.84 0 0 1-.84-.84v-.32a.84.84 0 0 1 .84-.84H261zM279 332v-2.16a.84.84 0 0 1 .84-.84h.07a.84.84 0 0 1 .84.84V332h1.41a.84.84 0 0 1 .84.84v.32a.84.84 0 0 1-.84.84h-1.41v1.16a.84.84 0 0 1-.84.84h-.07a.84.84 0 0 1-.84-.84V334h-2.16a.84.84 0 0 1-.84-.84v-.32a.84.84 0 0 1 .84-.84H279zM297 332v-2.16a.84.84 0 0 1 .84-.84h.07a.84.84 0 0 1 .84.84V332h1.41a.84.84 0 0 1 .84.84v.32a.84.84 0 0 1-.84.84h-1.41v1.16a.84.84 0 0 1-.84.84h-.07a.84.84 0 0 1-.84-.84V334h-2.16a.84.84 0 0 1-.84-.84v-.32a.84.84 0 0 1 .84-.84H297zM315 332v-2.16a.84.84 0 0 1 .84-.84h.07a.84.84 0 0 1 .84.84V332h1.41a.84.84 0 0 1 .84.84v.32a.84.84 0 0 1-.84.84h-1.41v1.16a.84.84 0 0 1-.84.84h-.07a.84.84 0 0 1-.84-.84V334h-2.16a.84.84 0 0 1-.84-.84v-.32a.84.84 0 0 1 .84-.84H315zM333 332v-2.16a.84.84 0 0 1 .84-.84h.07a.84.84 0 0 1 .84.84V332h1.41a.84.84 0 0 1 .84.84v.32a.84.84 0 0 1-.84.84h-1.41v1.16a.84.84 0 0 1-.84.84h-.07a.84.84 0 0 1-.84-.84V334h-2.16a.84.84 0 0 1-.84-.84v-.32a.84.84 0 0 1 .84-.84H333zM351 332v-2.16a.84.84 0 0 1 .84-.84h.07a.84.84 0 0 1 .84.84V332h1.41a.84.84 0 0 1 .84.84v.32a.84.84 0 0 1-.84.84h-1.41v1.16a.84.84 0 0 1-.84.84h-.07a.84.84 0 0 1-.84-.84V334h-2.16a.84.84 0 0 1-.84-.84v-.32a.84.84 0 0 1 .84-.84H351z"/>
        </g>
    </g>
</svg>
