<?xml version="1.0" encoding="UTF-8"?>
<svg width="309px" height="296px" viewBox="0 0 309 296" version="1.1" xmlns="http://www.w3.org/2000/svg" xmlns:xlink="http://www.w3.org/1999/xlink">
    <!-- Generator: Sketch 53.2 (72643) - https://sketchapp.com -->
    <title>Group 23 Copy</title>
    <desc>Created with Sketch.</desc>
    <defs>
        <linearGradient x1="117.267579%" y1="50%" x2="3.20628613%" y2="50%" id="linearGradient-1">
            <stop stop-color="#FDB996" offset="0%"></stop>
            <stop stop-color="#FF6080" offset="100%"></stop>
        </linearGradient>
        <linearGradient x1="100%" y1="50%" x2="-1.11022302e-14%" y2="50%" id="linearGradient-2">
            <stop stop-color="#A78BFF" offset="0%"></stop>
            <stop stop-color="#5E73FF" offset="100%"></stop>
        </linearGradient>
        <linearGradient x1="117.267579%" y1="50%" x2="3.20628613%" y2="50%" id="linearGradient-3">
            <stop stop-color="#FDB996" offset="0%"></stop>
            <stop stop-color="#FF6080" offset="100%"></stop>
        </linearGradient>
    </defs>
    <g id="Page-1" stroke="none" stroke-width="1" fill="none" fill-rule="evenodd">
        <g id="Group-23-Copy">
            <g id="Group-18" transform="translate(-0.000000, 0.000000)">
                <path d="M130.406437,296 C209.225434,296 309,242.259381 309,163.182094 C309,84.104807 233.611051,20 154.792054,20 C75.973057,20 13,26.710354 13,115.396029 C13,204.081705 32.8823537,296 130.406437,296 Z" id="Oval" fill="url(#linearGradient-1)" opacity="0.20249721"></path>
                <path d="M156.049291,292 C233.505532,292 278,228.544772 278,151.01249 C278,73.4802084 255.759152,0 178.302911,0 C100.846671,0 4.51986398e-15,74.083104 0,151.615386 C0,209.159605 78.5930513,292 156.049291,292 Z" id="Oval" fill="url(#linearGradient-2)" opacity="0.199567522"></path>
            </g>
            <path d="M286,153.001054 C286,228.110425 225.334284,289 150.49895,289 C75.6657161,289 15,228.110425 15,153.001054 C15,77.8895743 75.6657161,17 150.49895,17 C225.334284,17 286,77.8895743 286,153.001054 Z" id="Path" fill="url(#linearGradient-3)" fill-rule="nonzero"></path>
        </g>
    </g>
</svg>