<svg xmlns="http://www.w3.org/2000/svg" width="106" height="60" viewBox="0 0 106 60">
    <path fill="#FFF" fill-rule="evenodd" d="M0 38.925L8.239 30 0 21.075V5.128c0-1.783.186-2.43.534-3.082A3.635 3.635 0 0 1 2.046.534C2.698.186 3.345 0 5.128 0h95.744c1.783 0 2.43.186 3.082.534.652.349 1.163.86 1.512 1.512.348.652.534 1.299.534 3.082v49.744c0 1.783-.186 2.43-.534 3.082a3.635 3.635 0 0 1-1.512 1.512c-.652.348-1.299.534-3.082.534H5.128c-1.783 0-2.43-.186-3.082-.534a3.635 3.635 0 0 1-1.512-1.512C.186 57.302 0 56.655 0 54.872V38.925z" opacity=".246"/>
</svg>
